<svg xmlns="http://www.w3.org/2000/svg" xmlns:xlink="http://www.w3.org/1999/xlink" xml:space="preserve" version="1.1" style="shape-rendering:geometricPrecision;text-rendering:geometricPrecision;image-rendering:optimizeQuality;" viewBox="0 0 176 681.25" x="0px" y="0px" fill-rule="evenodd" clip-rule="evenodd"><defs>
</defs><g><path fill="black" d="M88 545c21,-38 34,-68 55,-106l-31 -289 48 0c9,0 16,-7 16,-16 0,-9 -7,-17 -16,-17l-51 0 -1 -100 17 0c4,0 8,-4 8,-9 0,-4 -4,-8 -8,-8l-74 0c-4,0 -8,4 -8,8 0,5 4,9 8,9l17 0 -1 100 -51 0c-9,0 -16,8 -16,17 0,9 7,16 16,16l47 0 -30 289c20,38 34,68 55,106z"/></g></svg>