<?xml version="1.0" encoding="utf-8"?>
<!-- Generator: Adobe Adobe Illustrator 29.1.0, SVG Export Plug-In . SVG Version: 6.00 Build 0)  -->
<svg version="1.1" id="XMLID_00000077294446391035991720000017680970261961307068_"
	 xmlns="http://www.w3.org/2000/svg" xmlns:xlink="http://www.w3.org/1999/xlink" x="0px" y="0px" width="2000px" height="2000px"
	 viewBox="0 0 2000 2000" style="enable-background:new 0 0 2000 2000;" xml:space="preserve">
<style type="text/css">
	.st0{fill:transparent;}
</style>
<rect class="st0" width="2000" height="2000"/>
<g>
	<path d="M1917.01,794.71c-17.71-146.61-95.27-269.23-223.48-344.31c-131.06-76.75-290.2-109.56-438.98-129.68
		c-156.27-21.14-316.09-23.5-472.56-2.73c-133.81,17.76-269.83,55.13-380.89,134.7C287.88,533.8,214.35,649.03,202.6,789.09
		c-10,119.14,51.05,239.6,152.84,301.53c-12.71,3.07-23.27,11.88-25.47,27.38c-17.94,126.35-51.99,250.37-103.44,367.25
		c-19.96,45.34,21.57,94.51,69.43,69.43c76.92-40.3,156.9-75.66,238.86-104.4c39.89-13.99,80.31-26.45,121.17-37.29
		c8.2-2.18,16.96-3.98,25.96-5.72c4.98,5.42,10.56,10.44,16.73,14.87c240.99,172.92,570.68,191.91,831.06,51.73
		C1768.13,1345.53,1950.56,1072.36,1917.01,794.71z M1151.14,1402.23c-131.64-1.55-257.34-43.48-368.7-123.38
		c-29.69-21.31-72.35-12.09-98.56,11.6c-15.91,3.9-31.73,8.83-47.15,12.95c-45.96,12.26-91.37,26.57-136.07,42.82
		c-48.66,17.7-96.08,37.77-142.43,60.13c25.58-90.62,42.19-183.54,50.42-277.69c1.63-18.67-10.89-31.41-26.41-36.62
		c7.12-7.28,8.45-20.79-2.56-28.56c-83.24-58.78-99.97-160.33-92.27-255.72c8.31-102.81,54.52-189.93,134.38-255.27
		c89.76-73.44,206.29-108.48,319.03-126.55c133.52-21.4,272.21-18.69,406.09-2.41c132.71,16.13,270.83,47.18,394.15,99.74
		c104.85,44.69,191.06,116,219.25,223.84c25.54,97.68,7.2,212.42-36.87,302.08c-12.4,25.22-26.66,49.54-42.3,72.89
		c-16.42,24.5-27.04,38.25-48,61.65c-18.96,21.16-39.22,41.15-60.57,59.91c-25.8,22.68-36.4,30.44-65.18,49.84
		C1398.89,1366.63,1281.17,1403.76,1151.14,1402.23z"/>
	<path d="M1171.02,567.46c-63.79-58.81-162.44-66.34-225.58-2.35c-52.46,53.17-53.38,136.55-11.49,196.55
		c13.77,19.73,42.29,2.94,32.12-18.77c-13.6-29.03-4.79-54.47,11.7-80.42c12.35-19.43,29.86-40.8,52.88-47.27
		c53.61-15.08,103.28,47.58,84.83,96.91c-11.92,31.89-38.99,56.59-60.5,82.04c-26.3,31.11-50.96,64.5-61.97,104.38
		c-10.21,36.99-9.02,82.2,14.92,113.52c22.22,29.07,54.9,46.42,91.33,34c17.8-6.07,25.05-24.22,16.67-40.98
		c-12.31-24.63-20.52-63.79-9.2-89.58c16.69-38.02,50.82-67.56,75.5-100.29c29.06-38.54,50.89-84.54,45.95-133.94
		C1223.87,637.91,1203.08,597.01,1171.02,567.46z"/>
	<path d="M1035.09,1145.63c-34.61,20.5-40.46,78.41,2.87,92.57c11.91,3.89,26.12,2.13,37.89-3.84c11.64,0.7,23.75-2.17,33.1-8.57
		c13.38-9.15,17.95-22,15.3-37.6C1117.6,1148.96,1069.61,1125.18,1035.09,1145.63z M1062.81,1199.05c0.09-0.22,0.18-0.45,0.27-0.67
		C1065.56,1199.27,1063.62,1199.44,1062.81,1199.05z"/>
</g>
</svg>
